<?xml version="1.0" encoding="iso-8859-1"?>
<!-- Generator: Adobe Illustrator 19.0.0, SVG Export Plug-In . SVG Version: 6.00 Build 0)  -->
<svg version="1.1" id="Capa_1" xmlns="http://www.w3.org/2000/svg" xmlns:xlink="http://www.w3.org/1999/xlink" x="0px" y="0px"
	 viewBox="0 0 488.006 488.006" style="enable-background:new 0 0 488.006 488.006;" xml:space="preserve">
<g>
	<g>
		<path d="M412.003,136.006h-104c-4.418,0-8,3.582-8,8s3.582,8,8,8h96v320h-320v-320h96c4.418,0,8-3.582,8-8s-3.582-8-8-8h-104
			c-4.418,0-8,3.582-8,8v336c0,4.418,3.582,8,8,8h336c4.418,0,8-3.582,8-8v-336C420.003,139.588,416.421,136.006,412.003,136.006z"
			/>
	</g>
</g>
<g>
	<g>
		<path d="M353.659,106.35l-104-104c-3.12-3.128-8.186-3.135-11.314-0.014c-0.005,0.005-0.01,0.01-0.014,0.014l-104,104
			c-3.178,3.069-3.266,8.134-0.197,11.312c3.069,3.178,8.134,3.266,11.312,0.197c0.067-0.064,0.132-0.13,0.197-0.197l90.36-90.344
			v300.688c0,4.418,3.582,8,8,8s8-3.582,8-8V27.318l90.344,90.344c3.178,3.07,8.242,2.982,11.312-0.196
			C356.654,114.366,356.654,109.451,353.659,106.35z"/>
	</g>
</g>
<g>
</g>
<g>
</g>
<g>
</g>
<g>
</g>
<g>
</g>
<g>
</g>
<g>
</g>
<g>
</g>
<g>
</g>
<g>
</g>
<g>
</g>
<g>
</g>
<g>
</g>
<g>
</g>
<g>
</g>
</svg>
