<?xml version="1.0" encoding="iso-8859-1"?>
<!-- Generator: Adobe Illustrator 19.0.0, SVG Export Plug-In . SVG Version: 6.00 Build 0)  -->
<svg version="1.1" id="Capa_1" xmlns="http://www.w3.org/2000/svg" xmlns:xlink="http://www.w3.org/1999/xlink" x="0px" y="0px"
	 viewBox="0 0 496.939 496.939" style="enable-background:new 0 0 496.939 496.939;" xml:space="preserve">
<g>
	<g>
		<g>
			<path d="M248.47,136c4.418,0,8-3.582,8-8V8c0-4.418-3.582-8-8-8s-8,3.582-8,8v120C240.47,132.418,244.051,136,248.47,136z"/>
			<path d="M477.225,223.075C459.968,127.634,385.271,52.936,289.83,35.68c-4.35-0.782-8.51,2.11-9.292,6.46s2.11,8.51,6.46,9.292
				c117.343,21.309,195.194,133.71,173.885,251.053C439.573,419.828,327.173,497.679,209.83,476.37
				C92.486,455.061,14.635,342.66,35.945,225.317C48.911,153.916,96.874,93.801,163.614,65.304
				c14.867-6.358,30.406-11.011,46.32-13.872c4.35-0.78,7.244-4.938,6.464-9.288c-0.78-4.35-4.938-7.244-9.288-6.464
				C80.772,58.522-3.128,179.457,19.714,305.795C42.557,432.133,163.492,516.033,289.83,493.19
				C416.167,470.348,500.067,349.413,477.225,223.075z"/>
		</g>
	</g>
</g>
<g>
</g>
<g>
</g>
<g>
</g>
<g>
</g>
<g>
</g>
<g>
</g>
<g>
</g>
<g>
</g>
<g>
</g>
<g>
</g>
<g>
</g>
<g>
</g>
<g>
</g>
<g>
</g>
<g>
</g>
</svg>
