<?xml version="1.0" encoding="iso-8859-1"?>
<!-- Generator: Adobe Illustrator 19.0.0, SVG Export Plug-In . SVG Version: 6.00 Build 0)  -->
<svg version="1.1" id="Capa_1" xmlns="http://www.w3.org/2000/svg" xmlns:xlink="http://www.w3.org/1999/xlink" x="0px" y="0px"
	 viewBox="0 0 496 496" style="enable-background:new 0 0 496 496;" xml:space="preserve">
<g>
	<g>
		<g>
			<path d="M494.928,244l-120-208c-1.429-2.475-4.07-4-6.928-4H128c-2.858,0-5.499,1.525-6.928,4l-120,208
				c-1.429,2.475-1.429,5.525,0,8l120,208c1.429,2.475,4.07,4,6.928,4h240c2.858,0,5.499-1.525,6.928-4l120-208
				C496.357,249.525,496.357,246.475,494.928,244z M363.384,448H132.616L17.232,248L132.616,48h230.768l115.384,200L363.384,448z"/>
			<path d="M272,64h-48c-4.418,0-8,3.582-8,8v272c0,4.418,3.582,8,8,8h48c4.418,0,8-3.582,8-8V72C280,67.582,276.418,64,272,64z
				 M264,336h-32V80h32V336z"/>
			<path d="M272,368h-48c-4.418,0-8,3.582-8,8v48c0,4.418,3.582,8,8,8h48c4.418,0,8-3.582,8-8v-48C280,371.582,276.418,368,272,368z
				 M264,416h-32v-32h32V416z"/>
		</g>
	</g>
</g>
<g>
</g>
<g>
</g>
<g>
</g>
<g>
</g>
<g>
</g>
<g>
</g>
<g>
</g>
<g>
</g>
<g>
</g>
<g>
</g>
<g>
</g>
<g>
</g>
<g>
</g>
<g>
</g>
<g>
</g>
</svg>
