<?xml version="1.0" encoding="iso-8859-1"?>
<!-- Generator: Adobe Illustrator 19.0.0, SVG Export Plug-In . SVG Version: 6.00 Build 0)  -->
<svg version="1.1" id="Capa_1" xmlns="http://www.w3.org/2000/svg" xmlns:xlink="http://www.w3.org/1999/xlink" x="0px" y="0px"
	 viewBox="0 0 496.005 496.005" style="enable-background:new 0 0 496.005 496.005;" xml:space="preserve">
<g>
	<g>
		<g>
			<path d="M216.003,155.839v192c0,4.418,3.582,8,8,8h48c4.418,0,8-3.582,8-8v-192c0-4.418-3.582-8-8-8h-48
				C219.585,147.839,216.003,151.42,216.003,155.839z M232.003,163.839h32v176h-32V163.839z"/>
			<path d="M272.003,371.839h-48c-4.418,0-8,3.582-8,8v48c0,4.418,3.582,8,8,8h48c4.418,0,8-3.582,8-8v-48
				C280.003,375.42,276.422,371.839,272.003,371.839z M264.003,419.839h-32v-32h32V419.839z"/>
			<path d="M495.083,472.111l-240-456c-2.422-3.91-7.555-5.117-11.465-2.695c-1.094,0.678-2.017,1.6-2.695,2.695l-240,456
				c-2.059,3.909-0.559,8.747,3.35,10.806c1.15,0.606,2.43,0.922,3.73,0.922h480c4.418,0.001,8.001-3.58,8.002-7.998
				C496.005,474.541,495.689,473.26,495.083,472.111z M21.251,467.839L248.003,37.015l226.752,430.824H21.251z"/>
		</g>
	</g>
</g>
<g>
</g>
<g>
</g>
<g>
</g>
<g>
</g>
<g>
</g>
<g>
</g>
<g>
</g>
<g>
</g>
<g>
</g>
<g>
</g>
<g>
</g>
<g>
</g>
<g>
</g>
<g>
</g>
<g>
</g>
</svg>
