<?xml version="1.0" encoding="iso-8859-1"?>
<!-- Generator: Adobe Illustrator 19.0.0, SVG Export Plug-In . SVG Version: 6.00 Build 0)  -->
<svg version="1.1" id="Capa_1" xmlns="http://www.w3.org/2000/svg" xmlns:xlink="http://www.w3.org/1999/xlink" x="0px" y="0px"
	 viewBox="0 0 488 488" style="enable-background:new 0 0 488 488;" xml:space="preserve">
<g>
	<g>
		<g>
			<path d="M460,319.392c-4.418,0-8,3.582-8,8V472H36V327.392c0-4.418-3.582-8-8-8s-8,3.582-8,8V480c0,4.418,3.582,8,8,8h432
				c4.418,0,8-3.582,8-8V327.392C468,322.974,464.418,319.392,460,319.392z"/>
			<path d="M238.344,405.656c3.12,3.128,8.186,3.135,11.314,0.014c0.005-0.005,0.01-0.01,0.014-0.014l104-104
				c3.07-3.178,2.982-8.242-0.196-11.312c-3.1-2.995-8.016-2.995-11.116,0L252,380.688V8c0-4.418-3.582-8-8-8s-8,3.582-8,8v372.688
				l-90.344-90.344c-3.178-3.07-8.242-2.982-11.312,0.196c-2.994,3.1-2.994,8.015,0,11.116L238.344,405.656z"/>
		</g>
	</g>
</g>
<g>
</g>
<g>
</g>
<g>
</g>
<g>
</g>
<g>
</g>
<g>
</g>
<g>
</g>
<g>
</g>
<g>
</g>
<g>
</g>
<g>
</g>
<g>
</g>
<g>
</g>
<g>
</g>
<g>
</g>
</svg>
