<?xml version="1.0" encoding="iso-8859-1"?>
<!-- Generator: Adobe Illustrator 19.0.0, SVG Export Plug-In . SVG Version: 6.00 Build 0)  -->
<svg version="1.1" id="Capa_1" xmlns="http://www.w3.org/2000/svg" xmlns:xlink="http://www.w3.org/1999/xlink" x="0px" y="0px"
	 viewBox="0 0 496 496" style="enable-background:new 0 0 496 496;" xml:space="preserve">
<g>
	<g>
		<path d="M248,0C111.033,0,0,111.033,0,248s111.033,248,248,248s248-111.033,248-248C495.841,111.099,384.901,0.159,248,0z
			 M89.476,78.508C132.466,38.303,189.14,15.956,248,16c58.756-0.028,115.317,22.321,158.184,62.504l-327.68,327.68
			C-8.951,312.669-4.039,165.963,89.476,78.508z M406.524,417.492C363.534,457.697,306.86,480.044,248,480
			c-58.756,0.028-115.317-22.321-158.184-62.504l327.68-327.68C504.951,183.331,500.039,330.037,406.524,417.492z"/>
	</g>
</g>
<g>
</g>
<g>
</g>
<g>
</g>
<g>
</g>
<g>
</g>
<g>
</g>
<g>
</g>
<g>
</g>
<g>
</g>
<g>
</g>
<g>
</g>
<g>
</g>
<g>
</g>
<g>
</g>
<g>
</g>
</svg>
