<?xml version="1.0" encoding="iso-8859-1"?>
<!-- Generator: Adobe Illustrator 19.0.0, SVG Export Plug-In . SVG Version: 6.00 Build 0)  -->
<svg version="1.1" id="Capa_1" xmlns="http://www.w3.org/2000/svg" xmlns:xlink="http://www.w3.org/1999/xlink" x="0px" y="0px"
	 viewBox="0 0 496.032 496.032" style="enable-background:new 0 0 496.032 496.032;" xml:space="preserve">
<g>
	<g>
		<g>
			<path d="M248.032,0.016c-4.418,0-8,3.582-8,8s3.582,8,8,8c128.187-0.058,232.151,103.812,232.209,231.999
				c0.058,128.187-103.812,232.151-231.999,232.209S16.091,376.412,16.033,248.225c-0.024-54.227,18.939-106.752,53.599-148.457
				l13.6,13.344l52.96-93.84l-92.8,54.792l14.768,14.48c-88.114,104.809-74.58,261.204,30.229,349.318
				c44.704,37.583,101.24,58.178,159.643,58.154c136.967,0,248-111.033,248-248S384.999,0.016,248.032,0.016z"/>
			<path d="M114.376,238.36c-3.123,3.124-3.123,8.188,0,11.312l88,88c3.124,3.123,8.188,3.123,11.312,0l168-168
				c3.07-3.178,2.982-8.242-0.196-11.312c-3.1-2.994-8.015-2.994-11.116,0L208.032,320.704l-82.344-82.344
				C122.564,235.237,117.5,235.237,114.376,238.36z"/>
		</g>
	</g>
</g>
<g>
</g>
<g>
</g>
<g>
</g>
<g>
</g>
<g>
</g>
<g>
</g>
<g>
</g>
<g>
</g>
<g>
</g>
<g>
</g>
<g>
</g>
<g>
</g>
<g>
</g>
<g>
</g>
<g>
</g>
</svg>
