<?xml version="1.0" encoding="iso-8859-1"?>
<!-- Generator: Adobe Illustrator 19.0.0, SVG Export Plug-In . SVG Version: 6.00 Build 0)  -->
<svg version="1.1" id="Capa_1" xmlns="http://www.w3.org/2000/svg" xmlns:xlink="http://www.w3.org/1999/xlink" x="0px" y="0px"
	 viewBox="0 0 496 496" style="enable-background:new 0 0 496 496;" xml:space="preserve">
<g>
	<g>
		<g>
			<path d="M488,0H8C3.582,0,0,3.582,0,8v480c0,4.418,3.582,8,8,8h480c4.418,0,8-3.582,8-8V8C496,3.582,492.418,0,488,0z M480,480
				H16V16h464V480z"/>
			<path d="M202.344,337.656c3.124,3.123,8.188,3.123,11.312,0l168-168c3.07-3.178,2.982-8.242-0.196-11.312
				c-3.1-2.994-8.015-2.994-11.116,0L208,320.688l-82.344-82.344c-3.178-3.07-8.242-2.982-11.312,0.196
				c-2.994,3.1-2.994,8.015,0,11.116L202.344,337.656z"/>
		</g>
	</g>
</g>
<g>
</g>
<g>
</g>
<g>
</g>
<g>
</g>
<g>
</g>
<g>
</g>
<g>
</g>
<g>
</g>
<g>
</g>
<g>
</g>
<g>
</g>
<g>
</g>
<g>
</g>
<g>
</g>
<g>
</g>
</svg>
