<?xml version="1.0" encoding="iso-8859-1"?>
<!-- Generator: Adobe Illustrator 19.0.0, SVG Export Plug-In . SVG Version: 6.00 Build 0)  -->
<svg version="1.1" id="Capa_1" xmlns="http://www.w3.org/2000/svg" xmlns:xlink="http://www.w3.org/1999/xlink" x="0px" y="0px"
	 viewBox="0 0 498.792 498.792" style="enable-background:new 0 0 498.792 498.792;" xml:space="preserve">
<g>
	<g>
		<path d="M398.17,49.6C355.242,17.404,303.03,0,249.37,0C112.403,0.021,1.387,111.071,1.408,248.038S112.479,496.021,249.446,496
			c25.774-0.004,51.389-4.026,75.924-11.92l5.8,14.712l72.152-53.44l-89.224,10.192l5.368,13.6
			C197.352,507.828,66.999,440.195,28.315,318.081C-10.369,195.968,57.264,65.615,179.378,26.931
			C301.492-11.753,431.844,55.88,470.528,177.993c22.615,71.387,9.372,149.3-35.559,209.207c-2.654,3.532-1.942,8.547,1.59,11.201
			c3.532,2.654,8.547,1.942,11.201-1.59c0.003-0.004,0.006-0.007,0.008-0.011C529.95,287.227,507.743,131.78,398.17,49.6z"/>
	</g>
</g>
<g>
</g>
<g>
</g>
<g>
</g>
<g>
</g>
<g>
</g>
<g>
</g>
<g>
</g>
<g>
</g>
<g>
</g>
<g>
</g>
<g>
</g>
<g>
</g>
<g>
</g>
<g>
</g>
<g>
</g>
</svg>
